<?xml version="1.0" standalone="no"?><!DOCTYPE svg PUBLIC "-//W3C//DTD SVG 1.1//EN" "http://www.w3.org/Graphics/SVG/1.1/DTD/svg11.dtd"><svg t="1647402848345" class="icon" viewBox="0 0 1024 1024" version="1.1" xmlns="http://www.w3.org/2000/svg" p-id="2374" width="32" height="32" xmlns:xlink="http://www.w3.org/1999/xlink"><defs><style type="text/css"></style></defs><path d="M852.530574 502.126058c-4.094073 0-7.224835-3.130762-7.224836-7.224835 0-183.510818-149.313264-332.824083-332.824082-332.824083s-332.824083 149.313264-332.824083 332.824083c0 4.094073-3.130762 7.224835-7.224835 7.224835s-7.224835-3.130762-7.224836-7.224835c0-191.458137 155.815616-347.273754 347.273754-347.273754S859.755409 303.443086 859.755409 494.901223c0 3.853246-3.37159 7.224835-7.224835 7.224835z" fill="#ffffff" p-id="2375"></path><path d="M908.643462 502.126058c-4.094073 0-7.224835-3.130762-7.224835-7.224835 0-214.577611-174.600188-388.936971-388.936971-388.936971-214.577611 0-388.936971 174.600188-388.936971 388.936971 0 4.094073-3.130762 7.224835-7.224836 7.224835s-7.224835-3.130762-7.224835-7.224835C109.095014 272.376294 289.956726 91.514581 512.481656 91.514581s403.386642 180.861712 403.386641 403.386642c0 3.853246-3.130762 7.224835-7.224835 7.224835z" fill="#ffffff" p-id="2376"></path><path d="M162.07714 743.676388c-21.915334 0-43.58984-6.020696-62.856068-17.821261-28.658514-17.339605-49.128881-44.793979-58.03951-77.787394-18.062088-67.913452 20.470367-137.5127 86.216368-154.852305 3.853246-0.963311 7.706491 1.204139 8.910631 5.057385 0.963311 3.853246-1.204139 7.706491-5.057385 8.91063-57.798683 15.412982-91.996237 77.064911-75.860771 137.271872 7.706491 29.140169 26.009407 53.70461 51.537158 69.117592 25.286924 15.172154 54.667921 19.507056 82.603952 12.041392 3.853246-0.963311 7.706491 1.204139 8.91063 5.057385 0.963311 3.853246-1.204139 7.706491-5.057385 8.91063-10.596425 2.889934-20.952023 4.094073-31.30762 4.094074z" fill="#ffffff" p-id="2377"></path><path d="M197.238006 742.472248c-10.355597 0-19.747883-6.984008-22.637818-17.339605l-55.87206-210.001881c-1.685795-6.020696-0.722484-12.28222 2.408278-17.821261s8.188147-9.392286 14.208843-10.837253l20.711195-5.53904c12.523048-3.37159 25.286924 4.094073 28.658514 16.617121l55.87206 210.001882c3.37159 12.523048-4.094073 25.286924-16.617121 28.658513l-20.711195 5.539041c-2.167451 0.481656-4.094073 0.722484-6.020696 0.722483zM161.836312 494.660395c-0.722484 0-1.444967 0-2.408278 0.240828l-20.711195 5.53904c-2.408278 0.722484-4.334901 2.167451-5.53904 4.094074-1.204139 2.167451-1.444967 4.575729-0.963312 6.743179l55.872061 210.001882c1.204139 4.816557 6.261524 7.706491 11.07808 6.261524l20.711195-5.539041c4.816557-1.204139 7.706491-6.261524 6.261524-11.07808L170.265287 500.921919c-0.722484-2.408278-2.167451-4.334901-4.094073-5.53904-1.204139-0.240828-2.649106-0.722484-4.334902-0.722484z" fill="#ffffff" p-id="2378"></path><path d="M861.682032 743.676388c-10.11477 0-20.470367-1.204139-30.585136-4.094074-3.853246-0.963311-6.261524-5.057385-5.057385-8.91063 0.963311-3.853246 5.057385-6.020696 8.91063-5.057385 57.798683 15.412982 118.005644-20.952023 134.14111-81.158984 16.135466-60.206961-18.062088-121.85889-75.860771-137.271872-3.853246-0.963311-6.261524-5.057385-5.057385-8.91063 0.963311-3.853246 5.057385-6.261524 8.91063-5.057385 65.505174 17.580433 104.278457 86.938852 86.216369 154.852305-15.65381 57.557855-66.709313 95.608655-121.618062 95.608655z" fill="#ffffff" p-id="2379"></path><path d="M826.761994 742.472248c-1.926623 0-4.094073-0.240828-6.020696-0.722483l-20.711195-5.539041c-12.523048-3.37159-19.988711-16.135466-16.617121-28.658513l55.87206-210.001882c1.685795-6.020696 5.53904-11.078081 10.837253-14.208843 5.53904-3.130762 11.800564-4.094073 17.821261-2.408278l20.711195 5.53904c6.020696 1.685795 11.078081 5.53904 14.208843 10.837253s4.094073 11.800564 2.408278 17.821261l-55.87206 210.001881c-2.649106 10.596425-12.28222 17.339605-22.637818 17.339605zM862.163688 494.660395c-1.444967 0-3.130762 0.481656-4.575729 1.204139-2.167451 1.204139-3.612418 3.130762-4.094074 5.539041l-55.87206 210.001881c-1.204139 4.816557 1.685795 9.633114 6.261524 11.078081l20.711195 5.539041c4.816557 1.204139 9.633114-1.685795 11.078081-6.261524l55.87206-210.001882c0.722484-2.408278 0.240828-4.816557-0.963312-6.74318-1.204139-2.167451-3.130762-3.612418-5.53904-4.094073l-20.711195-5.53904c-0.722484-0.722484-1.444967-0.722484-2.16745-0.722484z" fill="#ffffff" p-id="2380"></path></svg>