<?xml version="1.0" standalone="no"?><!DOCTYPE svg PUBLIC "-//W3C//DTD SVG 1.1//EN" "http://www.w3.org/Graphics/SVG/1.1/DTD/svg11.dtd"><svg t="1647349690142" class="icon" viewBox="0 0 1024 1024" version="1.1" xmlns="http://www.w3.org/2000/svg" p-id="1989" width="32" height="32" xmlns:xlink="http://www.w3.org/1999/xlink"><defs><style type="text/css"></style></defs><path d="M512 0C230.4 0 0 230.4 0 512s230.4 512 512 512 512-230.4 512-512S793.6 0 512 0z m0 964.266667C264.533333 964.266667 59.733333 759.466667 59.733333 512S264.533333 59.733333 512 59.733333 964.266667 264.533333 964.266667 512 759.466667 964.266667 512 964.266667z" fill="#ff6700" p-id="1990"></path><path d="M499.2 268.8c-17.066667-17.066667-42.666667-17.066667-59.733333 0s-17.066667 42.666667 0 59.733333l183.466666 183.466667-183.466666 183.466667c-17.066667 17.066667-17.066667 42.666667 0 59.733333 8.533333 8.533333 21.333333 12.8 29.866666 12.8s21.333333-4.266667 29.866667-12.8l213.333333-213.333333c17.066667-17.066667 17.066667-42.666667 0-59.733334l-213.333333-213.333333z" fill="#ff6700" p-id="1991"></path></svg>